<svg width="12" height="11" viewBox="0 0 12 11" fill="none" xmlns="http://www.w3.org/2000/svg">
<path d="M2.9938 11V3.99219H0.814111V11H2.9938ZM1.89224 3.05469C2.59536 3.05469 3.15786 2.46875 3.15786 1.76562C3.15786 1.08594 2.59536 0.523438 1.89224 0.523438C1.21255 0.523438 0.650049 1.08594 0.650049 1.76562C0.650049 2.46875 1.21255 3.05469 1.89224 3.05469ZM11.1266 11H11.15V7.15625C11.15 5.28125 10.7282 3.82812 8.52505 3.82812C7.47036 3.82812 6.76724 4.41406 6.46255 4.95312H6.43911V3.99219H4.35317V11H6.53286V7.53125C6.53286 6.61719 6.69692 5.75 7.82192 5.75C8.94692 5.75 8.97036 6.78125 8.97036 7.60156V11H11.1266Z" fill="#A09D98"/>
</svg>
