<svg width="8" height="11" viewBox="0 0 8 11" fill="none" xmlns="http://www.w3.org/2000/svg">
<path d="M3.35938 10.0547C0.507812 5.95312 0 5.52344 0 4C0 1.92969 1.66016 0.25 3.75 0.25C5.82031 0.25 7.5 1.92969 7.5 4C7.5 5.52344 6.97266 5.95312 4.12109 10.0547C3.94531 10.3281 3.53516 10.3281 3.35938 10.0547ZM3.75 5.5625C4.60938 5.5625 5.3125 4.87891 5.3125 4C5.3125 3.14062 4.60938 2.4375 3.75 2.4375C2.87109 2.4375 2.1875 3.14062 2.1875 4C2.1875 4.87891 2.87109 5.5625 3.75 5.5625Z" fill="#FD8C4E"/>
</svg>
