<svg width="121" height="24" viewBox="0 0 121 24" fill="none" xmlns="http://www.w3.org/2000/svg">
<path d="M0.12 14.98H8.856C9.00533 15.428 9.44267 15.812 10.168 16.132C10.8933 16.4307 11.864 16.6653 13.08 16.836C14.3173 16.9853 15.7467 17.06 17.368 17.06C18.968 17.06 20.2267 17.0173 21.144 16.932C22.0827 16.8253 22.744 16.6547 23.128 16.42C23.512 16.164 23.704 15.8227 23.704 15.396C23.704 14.9907 23.3947 14.6813 22.776 14.468C22.1573 14.2333 21.0587 14.0733 19.48 13.988C17.9013 13.9027 15.6827 13.86 12.824 13.86C10.6907 13.86 8.84533 13.764 7.288 13.572C5.752 13.3587 4.48267 13.0387 3.48 12.612C2.49867 12.164 1.77333 11.6093 1.304 10.948C0.834667 10.2653 0.6 9.45467 0.6 8.516C0.6 6.89467 1.144 5.56133 2.232 4.516C3.34133 3.44933 5.00533 2.66 7.224 2.148C9.464 1.61467 12.2587 1.348 15.608 1.348C20.5147 1.348 24.2587 2.06267 26.84 3.492C29.4427 4.9 30.744 6.93733 30.744 9.604H22.456C22.3493 8.9 21.688 8.36667 20.472 8.004C19.256 7.62 17.528 7.428 15.288 7.428C13.0693 7.428 11.416 7.556 10.328 7.812C9.26133 8.068 8.728 8.50533 8.728 9.124C8.728 9.444 8.87733 9.7 9.176 9.892C9.47467 10.084 9.98667 10.244 10.712 10.372C11.4587 10.4787 12.504 10.5533 13.848 10.596C15.192 10.6387 16.8987 10.66 18.968 10.66C21.2507 10.66 23.192 10.7773 24.792 11.012C26.392 11.2253 27.6827 11.556 28.664 12.004C29.6667 12.452 30.392 13.028 30.84 13.732C31.288 14.4147 31.512 15.2253 31.512 16.164C31.512 17.7853 31 19.108 29.976 20.132C28.952 21.156 27.3307 21.9133 25.112 22.404C22.8933 22.8947 19.992 23.14 16.408 23.14C14.3813 23.14 12.5147 23.0227 10.808 22.788C9.12267 22.5533 7.61867 22.212 6.296 21.764C4.97333 21.2947 3.85333 20.7293 2.936 20.068C2.01867 19.3853 1.31467 18.628 0.824 17.796C0.354667 16.9427 0.12 16.004 0.12 14.98ZM49.1013 22.98C45.7093 22.98 42.8826 22.7027 40.6213 22.148C38.3813 21.5933 36.6959 20.708 35.5653 19.492C34.4559 18.276 33.9013 16.676 33.9013 14.692C33.9013 12.708 34.4559 11.108 35.5653 9.892C36.6959 8.65467 38.3813 7.75867 40.6213 7.204C42.8826 6.628 45.7093 6.34 49.1013 6.34C52.4719 6.34 55.2666 6.628 57.4853 7.204C59.7253 7.75867 61.3999 8.65467 62.5093 9.892C63.6186 11.108 64.1733 12.708 64.1733 14.692C64.1733 16.676 63.6186 18.276 62.5093 19.492C61.3999 20.708 59.7253 21.5933 57.4853 22.148C55.2666 22.7027 52.4719 22.98 49.1013 22.98ZM49.1013 18.34C50.6799 18.34 52.0026 18.212 53.0693 17.956C54.1359 17.6787 54.9466 17.2733 55.5013 16.74C56.0559 16.1853 56.3333 15.5027 56.3333 14.692C56.3333 13.8813 56.0559 13.1987 55.5013 12.644C54.9679 12.0893 54.1679 11.6733 53.1013 11.396C52.0346 11.1187 50.7013 10.98 49.1013 10.98C47.5226 10.98 46.1786 11.1187 45.0693 11.396C43.9813 11.6733 43.1493 12.0893 42.5733 12.644C42.0186 13.1773 41.7413 13.86 41.7413 14.692C41.7413 15.5027 42.0186 16.1853 42.5733 16.74C43.1279 17.2733 43.9493 17.6787 45.0373 17.956C46.1466 18.212 47.5013 18.34 49.1013 18.34ZM67.2013 0.419998H74.8813V22.5H67.2013V0.419998ZM89.8685 22.948C87.5645 22.948 85.5165 22.628 83.7245 21.988C81.9325 21.3267 80.5138 20.3773 79.4685 19.14C78.4445 17.9027 77.9325 16.4093 77.9325 14.66C77.9325 12.8253 78.4445 11.2893 79.4685 10.052C80.5138 8.81467 81.9325 7.88667 83.7245 7.268C85.5165 6.64933 87.5645 6.34 89.8685 6.34C92.4285 6.34 94.6365 6.692 96.4925 7.396C98.3698 8.07867 99.8098 9.04933 100.813 10.308C101.837 11.5453 102.349 12.996 102.349 14.66C102.349 15.8973 102.061 17.028 101.485 18.052C100.909 19.0547 100.077 19.9293 98.9885 20.676C97.9005 21.4013 96.5885 21.9667 95.0525 22.372C93.5165 22.756 91.7885 22.948 89.8685 22.948ZM92.7485 18.084C94.3698 18.084 95.8525 17.988 97.1965 17.796C98.5618 17.5827 99.6498 17.2307 100.461 16.74C101.293 16.2493 101.709 15.556 101.709 14.66C101.709 13.7427 101.293 13.0387 100.461 12.548C99.6498 12.0573 98.5618 11.716 97.1965 11.524C95.8525 11.332 94.3698 11.236 92.7485 11.236C90.5725 11.236 88.8872 11.524 87.6925 12.1C86.4978 12.6547 85.9005 13.508 85.9005 14.66C85.9005 15.4067 86.1672 16.036 86.7005 16.548C87.2338 17.06 88.0125 17.444 89.0365 17.7C90.0605 17.956 91.2978 18.084 92.7485 18.084ZM101.709 6.82H109.389V22.5H102.157C102.157 22.5 102.114 22.2547 102.029 21.764C101.965 21.2733 101.89 20.5693 101.805 19.652C101.741 18.7347 101.709 17.6573 101.709 16.42V6.82ZM120.572 17.668V22.5H112.444V17.668H120.572Z" fill="#FD8C4E"/>
</svg>
