<svg width="10" height="11" viewBox="0 0 10 11" fill="none" xmlns="http://www.w3.org/2000/svg">
<path d="M5 0.40625C7.67578 0.40625 9.84375 2.57422 9.84375 5.25C9.84375 7.92578 7.67578 10.0938 5 10.0938C2.32422 10.0938 0.15625 7.92578 0.15625 5.25C0.15625 2.57422 2.32422 0.40625 5 0.40625ZM6.79688 6.51953C6.83594 6.48047 6.875 6.40234 6.875 6.32422C6.875 6.22656 6.81641 6.14844 6.75781 6.08984L5.625 5.25V2.4375C5.625 2.28125 5.46875 2.125 5.3125 2.125H4.6875C4.51172 2.125 4.375 2.28125 4.375 2.4375V5.48438C4.375 5.73828 4.47266 5.95312 4.66797 6.08984L5.97656 7.06641C6.01562 7.10547 6.09375 7.14453 6.15234 7.14453C6.26953 7.14453 6.34766 7.08594 6.40625 7.00781L6.79688 6.51953Z" fill="#FD8C4E"/>
</svg>
