<svg width="13" height="11" viewBox="0 0 13 11" fill="none" xmlns="http://www.w3.org/2000/svg">
<path d="M11.4578 3.0625C11.9266 2.71094 12.3485 2.28906 12.6766 1.79688C12.2547 1.98438 11.7625 2.125 11.2703 2.17188C11.786 1.86719 12.161 1.39844 12.3485 0.8125C11.8797 1.09375 11.3407 1.30469 10.8016 1.42188C10.3328 0.929688 9.70004 0.648438 8.99691 0.648438C7.63754 0.648438 6.53597 1.75 6.53597 3.10938C6.53597 3.29688 6.55941 3.48438 6.60629 3.67188C4.56722 3.55469 2.7391 2.57031 1.52035 1.09375C1.30941 1.44531 1.19222 1.86719 1.19222 2.33594C1.19222 3.17969 1.6141 3.92969 2.29379 4.375C1.89535 4.35156 1.49691 4.25781 1.16879 4.07031V4.09375C1.16879 5.28906 2.01254 6.27344 3.13754 6.50781C2.95004 6.55469 2.71566 6.60156 2.50472 6.60156C2.34066 6.60156 2.20004 6.57812 2.03597 6.55469C2.34066 7.53906 3.25472 8.24219 4.33285 8.26562C3.4891 8.92188 2.43441 9.32031 1.28597 9.32031C1.07504 9.32031 0.887537 9.29688 0.700037 9.27344C1.77816 9.97656 3.06722 10.375 4.47347 10.375C8.99691 10.375 11.4578 6.64844 11.4578 3.39062C11.4578 3.27344 11.4578 3.17969 11.4578 3.0625Z" fill="#A09D98"/>
</svg>
